<svg width="20" height="21" viewBox="0 0 20 21" fill="none" xmlns="http://www.w3.org/2000/svg">
<g id="Group">
<path id="Vector" d="M9.5366 20.0712C4.27984 20.0712 0 15.7914 0 10.5346C0 5.27789 4.27984 0.998047 9.5366 0.998047C14.7934 0.998047 19.0732 5.27789 19.0732 10.5346C19.0732 15.7914 14.7934 20.0712 9.5366 20.0712ZM9.5366 2.39365C5.04277 2.39365 1.3956 6.05012 1.3956 10.5346C1.3956 15.0192 5.04277 18.6756 9.5366 18.6756C14.0304 18.6756 17.6776 15.0192 17.6776 10.5346C17.6776 6.05012 14.0304 2.39365 9.5366 2.39365Z" fill="#5D5D5D"/>
<path id="Vector_2" d="M19.3063 21.0011C19.1295 21.0011 18.9527 20.936 18.8132 20.7965L16.9524 18.9357C16.6825 18.6658 16.6825 18.2192 16.9524 17.9494C17.2222 17.6796 17.6688 17.6796 17.9386 17.9494L19.7994 19.8102C20.0692 20.08 20.0692 20.5266 19.7994 20.7965C19.6598 20.936 19.4831 21.0011 19.3063 21.0011Z" fill="#5D5D5D"/>
</g>
</svg>
